<?xml version="1.0" standalone="no"?>
<!DOCTYPE svg PUBLIC "-//W3C//DTD SVG 20010904//EN"
 "http://www.w3.org/TR/2001/REC-SVG-20010904/DTD/svg10.dtd">
<svg version="1.0" xmlns="http://www.w3.org/2000/svg"
 width="2000.000000pt" height="2000.000000pt" viewBox="0 0 2000.000000 2000.000000"
 preserveAspectRatio="xMidYMid meet">
<metadata>
Created by potrace 1.11, written by Peter Selinger 2001-2013
</metadata>
<g transform="translate(0.000000,2000.000000) scale(0.100000,-0.100000)"
fill="#000000" stroke="none">
<path d="M9518 19825 c-2 -2 -55 -7 -118 -10 -223 -13 -369 -25 -480 -40 -19
-3 -55 -7 -80 -9 -106 -12 -324 -40 -395 -51 -16 -3 -41 -7 -55 -9 -14 -2 -41
-7 -60 -10 -80 -14 -97 -16 -130 -22 -19 -3 -41 -7 -49 -10 -8 -2 -30 -7 -50
-10 -42 -7 -275 -56 -376 -79 -38 -9 -79 -19 -90 -21 -103 -20 -377 -95 -705
-194 -272 -81 -731 -255 -1002 -379 -26 -11 -49 -21 -52 -21 -16 0 -561 -268
-690 -339 -28 -16 -82 -45 -119 -65 -362 -196 -993 -618 -1342 -898 -91 -73
-344 -286 -450 -379 -196 -172 -622 -598 -810 -812 -33 -38 -75 -85 -93 -105
-64 -72 -320 -388 -401 -497 -45 -60 -88 -117 -94 -125 -7 -8 -44 -60 -83
-115 -302 -424 -572 -878 -799 -1340 -98 -200 -131 -272 -185 -395 -18 -41
-40 -93 -50 -115 -27 -59 -143 -357 -180 -460 -17 -49 -38 -106 -45 -125 -16
-42 -125 -381 -148 -460 -48 -170 -126 -467 -141 -540 -3 -14 -19 -90 -36
-170 -17 -80 -33 -161 -36 -180 -3 -19 -9 -51 -14 -70 -5 -19 -11 -53 -15 -75
-3 -22 -10 -65 -15 -95 -12 -69 -17 -103 -24 -160 -3 -25 -8 -54 -10 -66 -4
-18 -10 -64 -21 -154 -9 -68 -25 -222 -30 -275 -3 -33 -8 -85 -10 -115 -22
-239 -30 -443 -29 -820 0 -311 6 -543 19 -675 2 -22 6 -76 9 -120 7 -97 14
-167 21 -220 3 -22 7 -67 10 -100 3 -33 8 -71 10 -85 3 -14 7 -47 10 -75 4
-27 8 -57 11 -65 2 -8 6 -35 8 -60 3 -25 7 -59 10 -75 3 -17 15 -86 27 -155
12 -69 23 -135 24 -147 2 -11 6 -29 9 -40 3 -10 8 -35 12 -57 3 -21 7 -46 9
-55 2 -9 13 -60 25 -113 34 -164 119 -495 166 -653 177 -591 367 -1076 626
-1595 103 -207 268 -510 345 -635 7 -11 27 -45 45 -75 54 -92 252 -400 280
-435 5 -5 53 -74 108 -153 93 -134 223 -309 280 -378 14 -17 39 -48 55 -69 49
-64 252 -305 323 -384 37 -41 81 -90 99 -110 187 -213 551 -567 843 -821 52
-45 108 -93 123 -107 65 -56 331 -266 437 -344 255 -189 560 -399 579 -399 5
0 11 -4 13 -8 4 -9 171 -114 323 -201 61 -35 127 -75 147 -87 21 -13 39 -24
41 -24 2 0 66 -34 143 -76 129 -70 556 -284 567 -284 3 0 38 -15 79 -34 76
-35 129 -59 213 -95 76 -34 317 -128 440 -172 61 -22 119 -44 130 -49 11 -4
29 -11 40 -13 11 -3 81 -26 155 -52 74 -25 214 -68 310 -95 96 -28 189 -54
205 -60 36 -11 419 -107 456 -114 15 -2 80 -16 145 -30 66 -14 133 -27 149
-30 17 -2 95 -16 175 -29 80 -14 195 -33 255 -42 61 -9 121 -18 135 -20 41 -6
111 -14 175 -21 33 -3 74 -8 90 -10 36 -4 133 -14 195 -19 25 -2 92 -7 150
-10 58 -3 119 -7 135 -10 46 -6 422 -18 590 -18 142 0 503 10 610 18 28 2 95
6 150 10 55 3 114 7 130 9 17 2 66 6 110 10 44 4 91 9 105 11 14 2 52 7 85 10
74 7 142 15 175 20 42 7 173 26 210 31 35 4 182 29 230 39 13 2 40 7 60 10 20
3 47 8 60 10 14 3 38 8 54 11 59 10 312 65 351 75 22 6 47 13 55 14 8 2 38 9
65 15 28 6 57 13 65 15 16 3 223 61 345 96 383 110 870 287 1220 444 83 37
177 79 210 93 68 29 439 216 560 282 774 419 1540 980 2153 1575 90 87 346
344 387 389 21 23 162 180 207 231 185 210 487 590 600 755 10 14 30 43 46 65
197 277 417 632 592 950 55 101 244 475 282 560 20 44 51 111 68 149 83 184
190 452 270 676 72 204 184 553 195 608 2 11 12 50 24 88 17 58 76 285 86 334
2 8 8 35 14 60 5 25 12 56 15 70 3 14 14 68 25 120 37 178 76 400 96 543 4 27
8 59 11 70 2 12 6 42 9 67 3 25 8 65 12 90 3 25 7 54 8 65 1 11 5 56 9 100 4
44 9 91 11 103 2 13 7 63 10 110 4 48 8 103 11 122 11 108 18 387 18 695 0
369 -6 545 -29 810 -3 28 -7 82 -10 120 -3 39 -8 79 -10 90 -2 11 -7 52 -10
90 -3 39 -8 79 -10 90 -2 11 -7 43 -10 70 -8 67 -42 290 -71 457 -25 153 -93
459 -150 678 -214 830 -529 1604 -968 2384 -89 157 -357 584 -408 651 -5 6
-49 69 -99 140 -50 72 -95 132 -100 133 -5 2 -9 8 -9 13 0 5 -21 37 -47 71
-56 74 -343 434 -370 463 -10 11 -31 36 -47 55 -29 35 -135 154 -236 265 -92
101 -520 526 -615 612 -165 148 -273 239 -449 382 -462 374 -994 729 -1531
1021 -81 45 -498 253 -560 281 -27 12 -87 39 -133 60 -45 22 -85 39 -87 39 -4
0 -189 77 -300 124 -16 7 -75 30 -130 50 -55 21 -116 44 -135 51 -89 35 -189
68 -355 120 -382 120 -550 165 -975 260 -8 2 -35 8 -60 14 -25 5 -57 12 -72
15 -15 2 -63 12 -105 20 -89 18 -124 24 -173 32 -39 6 -129 21 -175 29 -16 2
-50 7 -75 10 -25 3 -54 8 -65 10 -11 2 -54 7 -95 11 -41 3 -77 8 -80 9 -3 2
-37 7 -75 10 -38 4 -77 8 -87 10 -15 3 -55 7 -188 20 -25 2 -85 7 -135 10 -49
4 -115 9 -145 12 -63 5 -1086 13 -1092 8z"/>
</g>
</svg>
